# xmcd CD database file
#
# Track frame offsets:
#	150
#	25019
#	46293
#	65934
#	93125
#	107646
#	127700
#	151375
#	176826
#	207441
#
# Disc length: 3145 seconds
#
# Revision: 0
# Processed by: cddbd v1.5PL3 Copyright (c) Steve Scherf et al.
# Submitted via: CDex 1.51
#
DISCID=800c470a
DTITLE=Pachito Alonso y sus Kinikini - Traigo, te Traigo
DYEAR=2000
DGENRE=Salsa
TTITLE0=Traigo, te Traigo
TTITLE1=Un pedacito te voy a dar
TTITLE2=Hazme una guinadita
TTITLE3=Tu no sbes na'
TTITLE4=Amor, cuerpo a cuerpo
TTITLE5=La Habana tiene
TTITLE6=Mas vale poco que na'
TTITLE7=Manantial
TTITLE8=Que hablan, que comenten
TTITLE9=Chequendengue
EXTD=YEAR: 2000
EXTT0=
EXTT1=
EXTT2=
EXTT3=
EXTT4=
EXTT5=
EXTT6=
EXTT7=
EXTT8=
EXTT9=
PLAYORDER=
